<?xml version="1.0" encoding="utf-8"?>
<!-- Generator: Adobe Illustrator 19.0.0, SVG Export Plug-In . SVG Version: 6.00 Build 0)  -->
<svg version="1.1" id="Layer_1" xmlns="http://www.w3.org/2000/svg" xmlns:xlink="http://www.w3.org/1999/xlink" x="0px" y="0px"
	 viewBox="0 0 124.7 28.4" style="enable-background:new 0 0 124.7 28.4;" xml:space="preserve">
<style type="text/css">
	.st0{fill-rule:evenodd;clip-rule:evenodd;fill:#FFFFFF;}
</style>
<g id="XMLID_2_">
	<path id="XMLID_3_" class="st0" d="M60.2,27.1v-2.4c2.1,0.6,4.8-0.1,7.3-2.6c0.2,0.2,0.4,0.5,0.6,0.7C66.2,26,63.1,27.3,60.2,27.1
		L60.2,27.1z M60.2,17.1v-1.4h4.4c0.1-2.5-1-4.4-4-4.5c-0.1,0-0.2,0-0.4,0V9.9c0.2,0,0.4,0,0.6,0c5.2,0,7.1,2.8,7,7.2H60.2
		L60.2,17.1z M70.4,25.9c0,0.3,0,0.6,0,0.8c2.9,0,5.8,0,8.6,0c0-0.2,0-0.5,0-0.7c-1.4-0.1-2.7-0.2-2.7-1.3c0-3.1,0-6.2,0-9.2
		c1.3-2.6,4.7-5.2,5.7-1.6c0.7,0,1.4,0,2,0c0-1,0-2,0-3.1c-2.3-1.8-4.9-1-7.9,2.6c0-0.6,0-1.2,0-1.8c0-0.9-0.2-1.4-1.1-1.3
		c-1.6,0.2-3.2,0.6-4.8,0.7c0,0.3,0,0.6,0,0.9c0.5,0,1,0,1.6,0c0.8,0,1.2,0.6,1.3,1.3c0,3.9,0,7.7,0,11.6
		C72.9,25.7,71.8,25.9,70.4,25.9L70.4,25.9z M85.2,25.9c0,0.3,0,0.6,0,0.8c2.9,0,5.8,0,8.6,0c0-0.2,0-0.5,0-0.7
		c-1.4-0.1-2.7-0.2-2.7-1.3c0-4.4,0-17.8,0-22.2c0-0.9-0.2-1.4-1.1-1.3c-1.6,0.2-3.3,0.6-5,0.7c0,0.3,0,0.6,0,0.9c0.5,0,1,0,1.6,0
		c0.8,0,1.2,0.6,1.3,1.3c0,3.9,0,16.8,0,20.7C87.7,25.7,86.7,25.9,85.2,25.9L85.2,25.9z M97,25.9c0,0.3,0,0.6,0,0.8
		c2.9,0,5.8,0,8.6,0c0-0.2,0-0.5,0-0.7c-1.4-0.1-2.7-0.2-2.7-1.3c0-4.4,0-8.7,0-13.1c0-0.9-0.2-1.4-1.1-1.3c-1.6,0.2-3.3,0.6-5,0.7
		c0,0.3,0,0.6,0,0.9c0.5,0,1,0,1.6,0c0.8,0,1.2,0.6,1.3,1.3c0,3.9,0,7.7,0,11.6C99.5,25.7,98.4,25.9,97,25.9L97,25.9z M101.1,3.7
		c1.1,0,1.9,0.9,1.9,1.9c0,1.1-0.9,1.9-1.9,1.9c-1.1,0-1.9-0.9-1.9-1.9C99.2,4.6,100,3.7,101.1,3.7L101.1,3.7z M119.5,14.5
		c0.8,0,1.6,0,2.4,0c0-0.9,0-1.8,0-2.7c-1.8-1.1-3.5-2.1-6.5-1.9c-5.5,0.5-8.1,4.3-7.8,9.3c0.4,3.6,1.8,7.3,7.4,7.9
		c3.4,0.3,6.8-2.2,7.9-4.5c-0.2-0.2-0.4-0.4-0.6-0.5c-4.2,4.9-11.2,3.1-11.6-3.1c-0.4-4.5,1.8-7.7,5.1-7.8
		C118,11.3,119.2,12.4,119.5,14.5z M60.2,9.9v1.3c-3,0.2-4,3-4.4,4.5h4.4v1.4h-4.5c-0.3,3.8,1.6,6.8,4.5,7.6v2.4
		c-3.8-0.2-7.2-3-7.4-7.9C52.8,13.9,55.6,10.2,60.2,9.9L60.2,9.9z M42,27.1v-1.4c2.8-0.3,4.9-2.9,4.9-7c0-4.3-2.2-6.5-4.9-6.5V10
		c3.9-0.7,8,1.5,8,7.9C50,23.6,46.7,26.9,42,27.1z M42,10v2.2c-1.5,0-3.3,0.7-4.9,2.2c0,3.2,0,6.5,0,9.7c1.7,1.3,3.4,1.8,4.9,1.7
		v1.4c-2.4,0.1-5.1-0.5-8-2c0-6.9,0-13.8,0-20.7c-0.1-1.1-0.8-1.5-1.9-1.5c-0.3,0-0.6,0-0.9,0c0-0.3,0-0.6,0-0.9
		c2-0.1,3.9-0.7,5.9-0.8c0,3.8,0,7.7,0,11.5C38.3,11.2,40.1,10.3,42,10L42,10z M20.6,26.8v-2c1.2-0.2,2.5-0.7,3.7-1.5
		c0-1.6,0-3.3,0-4.9c-1.4,0.1-2.7,0.3-3.7,0.6v-1.4c1.3-0.2,2.5-0.4,3.7-0.6c0-0.8,0-1.7,0-2.5c-0.2-2-1.1-3.2-3.4-3.3
		c-0.1,0-0.2,0-0.4,0V10c0.1,0,0.3,0,0.4,0c4.4-0.1,6,1.7,6.4,4.4c0,3.1,0,6.3,0,9.4c0.3,1.8,1.4,1.5,2.6,0.8
		c0.1,0.3,0.3,0.5,0.4,0.8c-2.4,2.1-4.6,2.9-6-0.8C23.2,25.7,21.9,26.4,20.6,26.8z M13.6,5.3L13.6,5.3c0-1,0-1.9,0-2.9l0,0V5.3
		L13.6,5.3z M20.6,10v1.1c-2,0.2-3.1,1.5-3.6,3.8c-0.8,0-1.5,0-2.3,0c0-0.9,0-1.8,0-2.7C16.6,10.7,18.6,10.1,20.6,10L20.6,10z
		 M20.6,17.5v1.4c-2.6,0.7-3.9,2-3.7,4.1c0.3,1.5,1.8,2,3.7,1.7v2c-3.7,1.2-6.8-0.4-7.1-3.5v-0.8C13.9,19.4,17.2,18.2,20.6,17.5z
		 M0.5,26.7c3.1,0,6.3,0,9.4,0c0-0.3,0-0.7,0-1c-0.7,0-1.4,0-2,0c-1-0.1-1.5-0.6-1.7-1.3c0-4.3,0-8.5,0-12.8c1.4,0,2.7,0,4.1,0
		c0-0.4,0-0.8,0-1.2c-1.4,0-2.7,0-4.1,0c0-1.7,0-3.4,0-5.2c0.1-1.6,0.9-2.8,2.5-2.9c1.5,0,2.4,1.4,2.5,2.9h2.3V2.4
		c-1.6-0.8-3.2-1.3-5-1.2C5.1,1.4,3.2,4.3,3.2,7.5c0,1.3,0,1.5,0,2.9c-0.9,0-1.8,0-2.7,0c0,0.4,0,0.8,0,1.2c0.9,0,1.8,0,2.6,0
		c0,4.2,0,8.4,0,12.6c-0.1,0.8-0.6,1.3-1.4,1.4c-0.4,0-0.8,0-1.2,0C0.5,26,0.5,26.4,0.5,26.7L0.5,26.7z M13.6,22.5v0.8
		c0-0.1,0-0.3,0-0.4C13.6,22.8,13.6,22.6,13.6,22.5z"/>
</g>
</svg>
